<svg xmlns="http://www.w3.org/2000/svg" viewBox="0 0 1080 1920">
  <rect width="1080" height="1920" fill="#f9dda5"/><path d="M0 0h1080v1340H0z" fill="#88c9c2"/><circle cx="850" cy="265" r="135" fill="#f6c458"/><g fill="#fff8e8"><ellipse cx="205" cy="250" rx="155" ry="76"/><ellipse cx="350" cy="225" rx="145" ry="66"/></g>
  <path d="M0 1280c180-95 350-70 520 5 205 91 375 83 560-4v639H0z" fill="#72a87d"/>
  <path d="M0 530l150 68 130-105 145 93 150-112 150 112 132-100 223 86" fill="none" stroke="#fff3d6" stroke-width="22"/><path d="M120 576l30 120 72-82M370 552l55 130 72-103M665 538l60 135 68-108M945 540l35 128 64-90" fill="#ed7658" stroke="#fff3d6" stroke-width="10"/>
  <g transform="translate(140 950)"><path d="M400 0l96 180 205 32-146 145 34 205-189-94-189 94 34-205L99 212l205-32z" fill="#f4c85b" stroke="#fff6df" stroke-width="22"/><circle cx="400" cy="280" r="102" fill="#fff1b8"/><path d="M355 290c28 35 62 35 90 0" fill="none" stroke="#5c756c" stroke-width="18" stroke-linecap="round"/><circle cx="354" cy="250" r="13" fill="#5c756c"/><circle cx="446" cy="250" r="13" fill="#5c756c"/></g>
</svg>
